{
    "asset" : {
        "generator" : "Khronos glTF Blender I/O v3.4.50",
        "version" : "2.0"
    },
    "scene" : 0,
    "scenes" : [
        {
            "name" : "Scene",
            "nodes" : [
                0
            ]
        }
    ],
    "nodes" : [
        {
            "mesh" : 0,
            "name" : "NurbsPath",
            "rotation" : [
                -0.03332800418138504,
                -0.003931296989321709,
                -0.7077198028564453,
                0.7056958079338074
            ],
            "translation" : [
                0,
                15.481395721435547,
                0
            ]
        }
    ],
    "materials" : [
        {
            "doubleSided" : true,
            "name" : "Material",
            "pbrMetallicRoughness" : {
                "baseColorFactor" : [
                    0.8000000715255737,
                    0.0004889541887678206,
                    0,
                    1
                ],
                "metallicFactor" : 0,
                "roughnessFactor" : 0
            }
        }
    ],
    "meshes" : [
        {
            "name" : "NurbsPath.001",
            "primitives" : [
                {
                    "attributes" : {
                        "POSITION" : 0,
                        "TEXCOORD_0" : 1,
                        "NORMAL" : 2
                    },
                    "indices" : 3,
                    "material" : 0
                }
            ]
        }
    ],
    "accessors" : [
        {
            "bufferView" : 0,
            "componentType" : 5126,
            "count" : 3992,
            "max" : [
                8.781208038330078,
                3.610243320465088,
                1.0000001192092896
            ],
            "min" : [
                -3.593947172164917,
                -3.6663007736206055,
                -1.0000014305114746
            ],
            "type" : "VEC3"
        },
        {
            "bufferView" : 1,
            "componentType" : 5126,
            "count" : 3992,
            "type" : "VEC2"
        },
        {
            "bufferView" : 2,
            "componentType" : 5126,
            "count" : 3992,
            "type" : "VEC3"
        },
        {
            "bufferView" : 3,
            "componentType" : 5123,
            "count" : 23544,
            "type" : "SCALAR"
        }
    ],
    "bufferViews" : [
        {
            "buffer" : 0,
            "byteLength" : 47904,
            "byteOffset" : 0,
            "target" : 34962
        },
        {
            "buffer" : 0,
            "byteLength" : 31936,
            "byteOffset" : 47904,
            "target" : 34962
        },
        {
            "buffer" : 0,
            "byteLength" : 47904,
            "byteOffset" : 79840,
            "target" : 34962
        },
        {
            "buffer" : 0,
            "byteLength" : 47088,
            "byteOffset" : 127744,
            "target" : 34963
        }
    ],
    "buffers" : [
        {
            "byteLength" : 174832,
            "uri" : "data:application/octet-stream;base64,"
        }
    ]
}
